<?xml version="1.0" standalone="no"?>
<!DOCTYPE svg PUBLIC "-//W3C//DTD SVG 20010904//EN"
 "http://www.w3.org/TR/2001/REC-SVG-20010904/DTD/svg10.dtd">
<svg version="1.0" xmlns="http://www.w3.org/2000/svg"
 width="800.000000pt" height="500.000000pt" viewBox="0 0 800.000000 500.000000"
 preserveAspectRatio="xMidYMid meet">

<g transform="translate(0.000000,500.000000) scale(0.100000,-0.100000)"
fill="#000000" stroke="none">
<path d="M3822 4538 c-9 -13 -491 -979 -916 -1841 l-206 -418 -3 -367 -2 -367
1335 0 1335 0 3 333 c2 331 2 334 -22 401 -24 66 -92 208 -444 921 -99 201
-277 563 -396 805 -120 242 -229 464 -244 493 l-26 52 -202 0 c-149 0 -204 -3
-212 -12z m196 -74 c-3 -22 -13 -30 -66 -49 -35 -13 -72 -31 -83 -40 -19 -18
-19 -17 -19 28 0 63 30 87 112 87 58 0 59 -1 56 -26z m173 -3 c23 -23 29 -38
29 -71 l0 -42 -30 26 c-17 14 -55 33 -85 42 -50 16 -55 20 -55 46 0 27 1 28
56 28 48 0 59 -4 85 -29z m-371 -86 c0 -25 -4 -35 -16 -35 -11 0 -14 5 -9 18
4 9 10 25 12 35 8 27 13 20 13 -18z m198 -17 c-3 -41 -5 -44 -65 -76 -66 -35
-90 -34 -99 5 -8 32 28 70 88 95 70 28 80 25 76 -24z m94 27 c64 -22 102 -64
93 -103 -8 -37 -27 -37 -102 2 -52 26 -53 27 -53 71 0 25 4 45 8 45 5 0 29 -7
54 -15z m154 -42 c-11 -11 -26 10 -26 35 l1 27 15 -28 c9 -16 13 -31 10 -34z
m-447 -60 c-1 -27 -4 -39 -6 -28 -3 11 -10 23 -17 27 -8 6 -7 8 2 8 6 0 12 9
12 20 0 11 2 20 5 20 3 0 4 -21 4 -47z m470 6 c-18 -11 -49 -11 -49 0 0 5 9 7
20 4 12 -3 20 0 20 6 0 7 5 9 11 5 8 -4 7 -9 -2 -15z m-269 -52 c0 -37 -4 -44
-28 -55 -16 -7 -47 -28 -70 -48 -44 -37 -44 -37 -56 18 -5 21 1 32 31 58 28
25 103 68 121 70 1 0 2 -19 2 -43z m-230 18 c0 -9 7 -18 15 -21 20 -8 19 -24
0 -24 -9 0 -20 12 -25 26 -12 32 -12 34 0 34 6 0 10 -7 10 -15z m320 -6 c63
-38 80 -59 80 -100 0 -48 -11 -55 -41 -23 -13 14 -41 35 -61 47 -34 18 -38 25
-38 59 0 44 10 47 60 17z m182 9 c-7 -7 -12 -22 -12 -34 0 -18 -4 -20 -27 -16
l-27 5 22 15 c12 8 22 21 22 28 0 8 8 14 17 14 13 0 14 -3 5 -12z m-528 -60
c9 -17 16 -32 16 -32 0 -1 -11 -3 -25 -4 -26 -2 -33 17 -19 52 8 22 10 21 28
-16z m557 -36 c-17 -6 -13 -22 4 -22 21 0 47 -61 33 -77 -10 -13 -9 -14 15
-17 7 -1 11 -13 10 -29 -2 -24 1 -27 18 -22 12 4 19 2 20 -7 1 -7 2 -20 3 -28
0 -8 9 -14 18 -12 9 1 19 -2 23 -8 3 -5 2 -10 -2 -10 -5 0 -14 -10 -22 -21
-11 -19 -11 -21 3 -15 43 17 48 16 21 -3 -27 -19 -28 -21 -8 -21 12 0 25 -5
29 -11 5 -8 8 -8 14 0 3 7 7 -2 7 -19 0 -16 -4 -30 -9 -30 -5 0 -6 -5 -2 -11
4 -8 9 -8 17 0 17 17 22 13 23 -14 2 -20 -1 -23 -11 -15 -9 8 -15 8 -20 0 -11
-19 -22 -10 -29 22 -4 20 -2 34 6 39 7 4 9 12 4 16 -4 4 -17 -3 -28 -17 -12
-15 -15 -26 -9 -28 6 -2 11 -12 11 -22 0 -10 4 -20 9 -22 5 -1 11 -12 13 -23
2 -16 -3 -20 -25 -20 -31 -1 -42 9 -31 26 4 8 9 7 15 -2 6 -10 9 -6 9 14 0 16
-5 27 -14 27 -17 0 -12 60 7 73 8 6 7 7 -5 3 -24 -7 -48 3 -48 21 0 13 3 13
15 3 12 -10 15 -9 15 7 0 10 5 24 12 31 14 14 -27 32 -69 29 l-28 -2 3 63 c2
49 -1 64 -13 68 -8 3 -15 14 -15 25 0 16 -3 15 -27 -7 -15 -14 -29 -21 -31
-15 -2 6 -8 11 -13 11 -6 0 -8 -4 -4 -9 3 -5 -2 -16 -11 -25 -8 -9 -12 -21 -8
-27 4 -8 9 -7 15 2 7 11 9 10 9 -3 0 -10 4 -18 9 -18 5 0 8 8 7 17 0 10 8 19
19 21 17 4 18 2 5 -13 -12 -15 -12 -16 5 -13 16 2 19 -4 20 -39 1 -48 -21 -63
-43 -28 -11 17 -12 14 -6 -25 3 -25 10 -46 15 -48 16 -6 10 -19 -11 -25 -29
-8 -24 -34 8 -42 l27 -8 -25 -6 c-17 -5 -27 -16 -31 -36 l-7 -30 -1 33 c0 18
-7 35 -15 38 -9 3 -12 12 -9 22 5 12 2 14 -11 9 -16 -6 -18 -3 -14 23 3 16 1
30 -4 30 -4 0 -8 -5 -8 -11 0 -5 -4 -7 -10 -4 -16 10 -12 33 15 101 14 34 32
95 40 135 9 41 20 78 26 84 7 6 6 0 -1 -19 -6 -16 -9 -31 -6 -33 8 -8 46 22
52 42 4 11 11 26 17 34 9 11 13 6 20 -20 6 -22 5 -35 -2 -37z m-491 18 c0 -11
-2 -20 -4 -20 -2 0 -6 9 -9 20 -3 11 -1 20 4 20 5 0 9 -9 9 -20z m-25 -31 c4
-6 13 -8 21 -5 9 3 14 -2 14 -14 0 -11 15 -64 34 -118 31 -91 34 -124 10 -123
-5 0 -8 -9 -6 -20 2 -10 -4 -22 -12 -25 -9 -3 -16 -12 -16 -19 0 -23 -25 -35
-56 -26 l-29 8 28 8 c31 8 36 34 7 42 -20 5 -28 23 -10 23 6 0 10 10 10 23 0
20 4 23 28 19 26 -3 29 -1 30 27 0 22 -4 31 -15 31 -11 0 -14 -6 -9 -25 5 -18
2 -25 -9 -25 -8 0 -16 10 -16 23 -2 21 -2 21 -6 1 -3 -16 -11 -21 -32 -20 -25
1 -28 4 -19 19 5 11 7 29 4 42 -4 15 1 28 14 40 22 20 42 12 34 -13 -4 -12 -3
-13 3 -4 5 7 17 10 26 6 11 -4 17 -1 17 9 0 8 -5 17 -11 19 -5 2 -12 12 -14
23 -5 31 -6 31 -14 12 -6 -17 -9 -16 -34 7 -24 22 -27 23 -27 7 0 -11 -7 -21
-15 -25 -17 -6 -20 -48 -5 -77 16 -29 -5 -62 -35 -55 -13 3 -36 1 -51 -4 -25
-10 -26 -12 -10 -29 9 -9 13 -21 9 -26 -5 -4 0 -5 10 -2 11 4 17 1 17 -7 0
-17 -25 -27 -45 -20 -8 4 -15 1 -15 -6 0 -6 5 -8 10 -5 6 3 10 0 11 -7 0 -7 2
-23 3 -35 2 -14 -3 -23 -11 -23 -7 0 -13 -11 -13 -25 0 -18 4 -23 15 -19 11 5
13 2 9 -9 -3 -9 -12 -13 -20 -10 -8 3 -14 0 -14 -7 0 -10 -3 -10 -14 0 -14 11
-11 39 5 50 3 3 10 19 13 36 5 22 2 35 -9 44 -8 7 -19 10 -22 6 -4 -4 -2 -11
5 -15 8 -5 10 -19 6 -39 -7 -35 -13 -39 -32 -20 -9 9 -12 8 -12 -6 0 -16 -2
-16 -15 -6 -12 10 -13 15 -4 20 6 4 8 13 5 19 -4 6 -3 11 3 11 5 0 13 -5 16
-10 4 -6 11 -8 16 -4 6 4 6 10 0 18 -6 7 -8 16 -4 20 4 4 2 11 -5 15 -10 6 -9
11 4 22 12 9 15 10 10 2 -4 -7 -3 -13 3 -13 5 0 13 5 16 10 4 6 12 7 18 3 7
-4 6 0 -2 10 -7 9 -17 14 -22 11 -5 -3 -9 0 -9 6 0 6 7 10 16 8 10 -2 19 3 21
10 3 6 0 12 -7 12 -6 0 -8 5 -5 10 3 6 15 10 27 10 13 0 18 5 15 14 -3 7 -1
18 5 24 6 6 17 8 24 5 8 -3 14 0 14 6 0 6 -4 11 -10 11 -17 0 1 28 22 34 16 4
19 8 10 18 -7 9 -6 22 4 47 8 19 17 32 20 28 3 -3 17 1 32 9 32 17 39 17 47 3z
m215 -13 c0 -14 -5 -28 -10 -31 -6 -4 -27 -38 -46 -77 -39 -77 -45 -77 -65 -4
-10 36 -8 41 18 68 28 30 81 68 96 68 4 0 7 -11 7 -24z m119 -39 c35 -37 36
-47 11 -112 l-10 -27 -35 42 c-34 40 -55 93 -55 138 0 21 1 22 28 8 15 -8 42
-30 61 -49z m-458 12 c-5 -13 -10 -19 -10 -12 -1 15 10 45 15 40 3 -2 0 -15
-5 -28z m743 -65 c3 -8 2 -12 -4 -9 -6 3 -10 10 -10 16 0 14 7 11 14 -7z m-99
-619 c147 -291 335 -662 417 -824 l148 -293 -2 -157 -3 -156 -165 0 -165 0 -5
373 -5 374 -28 24 -28 24 -458 0 c-437 0 -460 -1 -482 -19 l-24 -19 -5 -379
-5 -378 -170 0 -170 0 -3 143 -3 143 122 247 c67 136 194 393 282 572 88 179
224 457 304 619 l144 295 18 -30 c9 -16 138 -267 286 -559z m-585 476 c0 -10
-9 -21 -20 -24 -22 -6 -27 12 -8 31 17 17 28 15 28 -7z m560 9 c0 -5 -5 -10
-11 -10 -5 0 -7 5 -4 10 3 6 8 10 11 10 2 0 4 -4 4 -10z m70 -32 c0 -5 -10 -6
-22 -2 -30 9 -30 8 -22 28 6 16 8 16 25 0 11 -9 19 -21 19 -26z m-686 -37 c4
-5 0 -12 -6 -14 -10 -4 -9 -8 2 -16 20 -14 33 -14 24 1 -4 7 -3 8 4 4 21 -13
2 -33 -27 -28 -24 3 -28 8 -27 33 1 28 19 39 30 20z m722 -20 c1 -25 -3 -30
-28 -33 -36 -6 -46 9 -22 30 17 16 17 16 5 0 -14 -19 -5 -24 17 -10 7 5 10 16
6 25 -4 11 -1 17 7 17 9 0 14 -12 15 -29z m-651 -20 c3 -5 1 -12 -5 -16 -5 -3
-10 1 -10 9 0 18 6 21 15 7z m565 -11 c0 -5 -2 -10 -4 -10 -3 0 -8 5 -11 10
-3 6 -1 10 4 10 6 0 11 -4 11 -10z m35 -69 c15 -18 16 -22 5 -21 -55 8 -75
-18 -41 -54 19 -20 20 -24 6 -36 -12 -10 -15 -10 -15 4 0 9 -5 16 -11 16 -5 0
-7 5 -4 10 4 6 -3 18 -14 28 -17 15 -18 19 -6 30 8 7 15 10 15 7 0 -3 9 -1 20
5 11 6 20 18 20 27 0 9 1 14 3 12 1 -2 11 -15 22 -28z m-625 9 c0 -5 13 -16
30 -25 19 -10 27 -20 23 -31 -5 -12 -8 -12 -20 6 -9 12 -25 20 -44 20 -27 0
-28 2 -17 20 14 21 28 27 28 10z m-70 -72 c0 -11 -28 -10 -35 1 -3 6 4 9 15 8
11 -1 20 -5 20 -9z m775 1 c-7 -11 -35 -12 -35 -1 0 4 9 8 20 9 11 1 18 -2 15
-8z m-674 -29 c-5 -3 -10 -13 -12 -23 -4 -16 -5 -16 -16 2 -10 16 -10 23 4 36
13 13 18 14 24 4 4 -8 4 -16 0 -19z m-296 -20 c-3 -5 -10 -10 -16 -10 -5 0 -9
5 -9 10 0 6 7 10 16 10 8 0 12 -4 9 -10z m1035 -1 c0 -5 3 -8 8 -6 4 3 7 -14
7 -38 0 -28 -4 -41 -12 -38 -6 3 -13 -6 -15 -19 -4 -32 -38 -37 -39 -6 l-1 23
-6 -23 c-8 -25 -24 -31 -30 -10 -3 11 -2 11 6 0 11 -17 23 44 16 85 l-4 28 15
-28 c9 -15 13 -32 10 -37 -3 -5 -1 -11 5 -15 5 -3 13 7 16 22 7 25 8 25 15 8
6 -16 8 -14 8 11 1 16 -4 35 -11 42 -9 9 -9 12 0 12 7 0 12 -5 12 -11z m120 7
c0 -3 -4 -8 -10 -11 -5 -3 -10 -1 -10 4 0 6 5 11 10 11 6 0 10 -2 10 -4z
m-1060 -47 c0 -19 5 -29 15 -29 8 0 15 -5 15 -11 0 -5 4 -8 10 -4 5 3 7 11 4
18 -2 7 2 21 9 31 13 18 14 17 12 -10 -1 -16 0 -21 2 -11 2 9 9 17 14 17 5 0
9 -8 7 -17 -2 -10 3 -17 10 -15 6 1 12 -3 12 -9 0 -6 -9 -8 -20 -4 -12 4 -20
2 -20 -5 0 -6 -4 -8 -10 -5 -6 4 -10 -5 -10 -19 0 -24 -2 -25 -20 -14 -11 7
-20 21 -20 30 0 23 -20 23 -21 1 -1 -17 -2 -17 -6 0 -2 9 -8 15 -11 13 -11 -7
-9 68 2 76 16 11 26 -1 26 -33z m45 22 c-3 -6 -11 -11 -17 -11 -6 0 -6 6 2 15
14 17 26 13 15 -4z m880 -9 c-7 -8 -35 7 -35 18 0 6 7 6 20 -2 10 -7 17 -14
15 -16z m55 8 c0 -5 -5 -10 -11 -10 -5 0 -7 5 -4 10 3 6 8 10 11 10 2 0 4 -4
4 -10z m-115 -58 c-6 -20 -35 -21 -35 -1 0 4 7 6 16 2 13 -5 15 -2 9 18 -6 19
-5 21 5 13 7 -7 9 -21 5 -32z m110 28 c3 -5 1 -10 -4 -10 -6 0 -11 5 -11 10 0
6 2 10 4 10 3 0 8 -4 11 -10z m-1091 -37 c-3 -10 2 -27 11 -38 16 -20 16 -20
12 1 -3 12 -1 27 3 34 5 8 10 1 15 -20 5 -23 3 -35 -6 -41 -20 -12 -57 -11
-65 2 -4 7 -10 7 -16 1 -16 -16 -36 -3 -31 19 3 10 14 19 24 19 10 0 23 9 29
20 13 25 30 26 24 3z m1230 -23 c9 0 16 -6 16 -14 0 -8 6 -16 12 -18 7 -3 3
-7 -9 -10 -14 -4 -29 1 -42 14 -12 10 -26 16 -33 12 -8 -5 -9 -2 -5 10 4 10 7
25 7 34 1 14 4 13 19 -5 11 -13 26 -23 35 -23z m-987 -2 c-3 -8 -6 -5 -6 6 -1
11 2 17 5 13 3 -3 4 -12 1 -19z m920 -29 c13 -5 22 -13 18 -19 -11 -17 -50 6
-52 31 -1 13 0 18 3 11 3 -7 17 -17 31 -23z m-930 -21 c-3 -7 -5 -2 -5 12 0
14 2 19 5 13 2 -7 2 -19 0 -25z m-132 12 c3 -6 -1 -7 -9 -4 -18 7 -21 14 -7
14 6 0 13 -4 16 -10z m35 -12 c0 -18 -2 -20 -9 -8 -6 8 -7 18 -5 22 9 14 14 9
14 -14z m920 10 c0 -7 -5 -20 -10 -28 -8 -12 -10 -9 -10 13 0 15 5 27 10 27 6
0 10 -6 10 -12z m-50 -33 c-6 -15 -13 -25 -17 -21 -3 3 0 17 7 31 7 14 15 23
17 21 2 -2 -1 -16 -7 -31z m130 10 c0 -8 -4 -15 -10 -15 -5 0 -10 7 -10 15 0
8 5 15 10 15 6 0 10 -7 10 -15z m-1080 -5 c0 -5 -4 -10 -10 -10 -5 0 -10 5
-10 10 0 6 5 10 10 10 6 0 10 -4 10 -10z m134 -16 c4 -10 1 -14 -6 -12 -15 5
-23 28 -10 28 5 0 13 -7 16 -16z m-58 -24 c8 0 14 -5 14 -10 0 -7 -6 -7 -20 0
-11 6 -19 18 -19 28 1 16 2 16 6 0 2 -10 11 -18 19 -18z m924 -5 c-14 -17 -30
-20 -30 -5 0 6 7 10 15 10 8 0 15 8 16 18 0 11 2 12 6 4 3 -7 -1 -19 -7 -27z
m-1147 -15 c-3 -12 0 -20 8 -20 7 0 9 -3 6 -6 -4 -4 -13 -1 -21 5 -11 9 -16 9
-22 0 -4 -7 -2 -15 4 -17 22 -7 12 -20 -18 -24 -16 -3 -30 -1 -30 4 0 4 6 8
13 8 6 0 13 12 14 27 0 15 8 32 17 38 9 7 12 16 8 21 -4 4 0 3 9 -4 10 -8 15
-21 12 -32z m1396 -6 c6 -14 9 -29 6 -34 -3 -5 3 -11 12 -13 10 -3 3 -5 -14
-6 -32 -1 -46 13 -21 21 6 2 8 10 4 17 -6 9 -11 9 -22 0 -8 -6 -17 -9 -21 -5
-3 3 -1 6 6 6 7 0 11 8 10 18 -2 27 0 32 15 26 7 -3 18 -16 25 -30z m-1131 12
c-7 -8 -15 -12 -17 -11 -5 6 10 25 20 25 5 0 4 -6 -3 -14z m889 -28 c-3 -8 -6
-5 -6 6 -1 11 2 17 5 13 3 -3 4 -12 1 -19z m63 -8 c0 -5 -5 -10 -11 -10 -5 0
-7 5 -4 10 3 6 8 10 11 10 2 0 4 -4 4 -10z m-1075 -30 c-3 -5 -12 -7 -20 -3
-21 7 -19 13 6 13 11 0 18 -4 14 -10z m1095 6 c0 -11 -19 -15 -25 -6 -3 5 1
10 9 10 9 0 16 -2 16 -4z m-1060 -27 c0 -6 -4 -7 -10 -4 -5 3 -10 11 -10 16 0
6 5 7 10 4 6 -3 10 -11 10 -16z m1020 7 c0 -3 -4 -8 -10 -11 -5 -3 -10 -1 -10
4 0 6 5 11 10 11 6 0 10 -2 10 -4z m-1001 -69 c0 -9 -2 -9 -6 1 -2 6 -11 12
-19 12 -8 0 -14 5 -14 10 0 7 6 7 20 0 11 -6 20 -16 19 -23z m1001 24 c0 -5
-10 -11 -22 -14 -22 -6 -22 -6 -4 8 23 17 26 18 26 6z m24 -43 c-3 -4 -11 -5
-19 -1 -21 7 -19 12 4 10 11 0 18 -5 15 -9z m-1036 -23 c0 -14 -6 -25 -13 -25
-7 0 -16 -7 -19 -16 -3 -8 -10 -13 -15 -9 -6 3 -8 12 -4 20 3 8 0 15 -5 15 -6
0 -13 -8 -15 -17 -3 -12 -5 -9 -6 8 -1 23 3 26 31 27 18 0 34 6 36 11 6 18 10
12 10 -14z m1062 -7 c0 -4 -7 -8 -15 -8 -18 0 -19 -12 -4 -27 9 -9 8 -11 -2
-9 -20 2 -59 38 -53 47 6 11 74 8 74 -3z m-1166 -44 c3 -9 6 -29 6 -46 0 -36
-21 -34 -34 4 -15 42 12 82 28 42z m1224 -12 c4 -24 -14 -62 -28 -62 -11 0
-13 50 -4 75 9 21 28 14 32 -13z m-1301 -15 c-6 -20 -27 -19 -27 2 0 14 5 19
15 14 9 -3 14 -10 12 -16z m1373 9 c0 -2 -9 -6 -20 -9 -11 -3 -18 -1 -14 4 5
9 34 13 34 5z m-1237 -46 c-3 -12 -8 -19 -11 -16 -5 6 5 36 12 36 2 0 2 -9 -1
-20z m1085 -5 c-3 -3 -9 2 -12 12 -6 14 -5 15 5 6 7 -7 10 -15 7 -18z m-1200
-27 c19 -19 14 -28 -17 -28 -41 0 -61 9 -54 26 6 17 54 19 71 2z m1375 -2 c3
-8 -1 -17 -9 -20 -23 -9 -74 -7 -74 2 0 29 73 45 83 18z m-1610 -61 c4 -8 2
-17 -3 -20 -6 -4 -10 3 -10 14 0 25 6 27 13 6z m152 5 c-19 -8 -19 -9 3 -9 24
-1 32 -31 7 -31 -11 0 -13 -8 -8 -31 5 -29 5 -30 -23 -23 -34 8 -43 14 -22 14
12 0 15 10 12 45 -3 43 -2 45 24 44 24 0 25 -1 7 -9z m1496 -37 c0 -27 3 -42
6 -35 7 17 23 15 23 -3 0 -8 -6 -15 -14 -15 -8 0 -22 -3 -32 -7 -14 -5 -16 -2
-11 22 3 20 0 33 -11 42 -15 11 -15 13 7 20 23 6 24 7 5 14 -18 7 -17 8 4 8
20 1 22 -4 23 -46z m-1545 22 c-1 -8 -5 -17 -8 -21 -5 -4 -4 16 1 34 3 9 9 -1
7 -13z m164 -15 c0 -20 -44 -60 -66 -60 -25 0 -15 38 17 64 33 28 49 26 49 -4z
m1310 -23 c19 -33 6 -46 -27 -27 -34 19 -48 43 -39 65 6 16 8 16 29 3 12 -9
29 -27 37 -41z m200 14 c-6 -12 -16 -21 -22 -21 -6 0 -3 9 7 20 10 11 15 20
11 20 -4 0 -4 5 0 12 13 21 17 -8 4 -31z m-1755 -11 c3 -5 1 -10 -4 -10 -6 0
-11 5 -11 10 0 6 2 10 4 10 3 0 8 -4 11 -10z m45 -4 c0 -8 6 -17 13 -19 9 -4
9 -6 0 -6 -7 -1 -17 8 -23 19 -7 14 -7 20 0 20 5 0 10 -6 10 -14z m1650 -6
c-6 -11 -16 -20 -23 -19 -9 0 -9 2 1 6 6 2 12 11 12 19 0 8 5 14 10 14 7 0 7
-6 0 -20z m-1605 0 c3 -5 1 -10 -4 -10 -6 0 -11 5 -11 10 0 6 2 10 4 10 3 0 8
-4 11 -10z m1749 -83 c7 -6 6 -7 -4 -4 -8 2 -16 14 -17 28 -1 19 -1 20 4 4 3
-11 10 -24 17 -28z m-1703 12 c39 -12 69 -25 67 -29 -29 -73 -106 -220 -116
-220 -7 0 -35 9 -62 21 -34 14 -50 28 -54 45 -5 20 -12 24 -46 24 -22 0 -40 4
-40 10 0 5 13 7 30 4 29 -6 42 7 19 21 -19 12 -3 29 30 31 41 3 47 9 31 29
-11 13 -15 13 -21 3 -6 -9 -9 -7 -9 8 0 11 -5 25 -12 32 -9 9 -7 12 10 12 11
0 27 7 34 15 18 20 59 18 139 -6z m1599 4 c14 -6 31 -12 39 -15 10 -3 4 -13
-20 -36 -37 -34 -35 -44 10 -46 39 -2 45 -9 31 -37 -11 -19 -10 -21 4 -16 9 4
16 2 16 -3 0 -6 -11 -10 -25 -10 -18 0 -26 -7 -31 -24 -4 -17 -20 -31 -55 -46
-27 -11 -54 -18 -59 -15 -16 10 -113 215 -106 222 4 4 30 15 59 24 55 18 96
19 137 2z m-1830 -24 c0 -5 -4 -8 -9 -5 -5 4 -12 0 -14 -6 -3 -8 -6 -6 -6 5
-1 9 6 17 14 17 8 0 15 -5 15 -11z m-5 -39 c3 -5 1 -10 -4 -10 -6 0 -11 5 -11
10 0 6 2 10 4 10 3 0 8 -4 11 -10z m50 -9 c-8 -14 -25 -14 -25 0 0 5 5 7 10 4
6 -3 10 -1 10 6 0 7 3 10 6 6 3 -3 3 -10 -1 -16z m1845 -1 c8 -5 11 -10 5 -10
-5 0 -17 5 -25 10 -8 5 -10 10 -5 10 6 0 17 -5 25 -10z m-1903 -35 c1 -14 0
-15 -3 -3 -3 9 -15 19 -27 22 -18 4 -18 4 3 3 17 -1 25 -8 27 -22z m1990 19
c-3 -3 -12 -4 -19 -1 -8 3 -5 6 6 6 11 1 17 -2 13 -5z m3 -29 c11 -13 10 -14
-4 -9 -9 3 -16 10 -16 15 0 13 6 11 20 -6z m-1355 -5 c-3 -5 -13 -10 -21 -10
-8 0 -14 5 -14 10 0 6 9 10 21 10 11 0 17 -4 14 -10z m45 6 c0 -2 -8 -10 -17
-17 -16 -13 -17 -12 -4 4 13 16 21 21 21 13z m254 -7 c-3 -6 -17 -8 -29 -5
-13 3 -27 2 -30 -4 -3 -5 -17 -10 -29 -10 -13 0 -29 -7 -36 -15 -20 -24 -48
-18 -65 15 l-16 30 106 0 c74 0 104 -3 99 -11z m261 -19 c-17 -33 -45 -39 -65
-15 -7 8 -23 15 -36 15 -12 0 -26 4 -29 10 -3 5 -19 7 -35 3 -19 -3 -30 -1
-30 6 0 7 34 11 105 11 l106 0 -16 -30z m137 18 c-9 -9 -15 -9 -24 0 -9 9 -7
12 12 12 19 0 21 -3 12 -12z m-709 -49 c89 -52 104 -72 71 -100 -8 -7 -13 -21
-11 -30 3 -10 -1 -23 -8 -29 -7 -5 -10 -21 -7 -35 4 -23 1 -25 -31 -25 -20 0
-59 5 -87 11 l-50 11 0 108 c0 113 5 140 24 140 6 0 50 -23 99 -51z m815 -76
l3 -121 -53 -11 c-29 -5 -68 -11 -86 -14 -32 -4 -34 -2 -30 25 3 16 1 31 -4
34 -4 3 -8 16 -8 28 0 13 -7 29 -15 36 -32 26 -17 48 73 99 48 28 94 50 102
49 12 -3 16 -26 18 -125z m-738 97 c0 -5 -7 -10 -16 -10 -8 0 -12 5 -9 10 3 6
10 10 16 10 5 0 9 -4 9 -10z m560 0 c0 -5 -4 -10 -10 -10 -5 0 -10 5 -10 10 0
6 5 10 10 10 6 0 10 -4 10 -10z m695 0 c-3 -5 -10 -10 -16 -10 -5 0 -9 5 -9
10 0 6 7 10 16 10 8 0 12 -4 9 -10z m-2032 -51 c-6 -6 -7 3 -4 23 4 28 6 29 9
9 2 -13 0 -27 -5 -32z m142 21 c3 -5 -1 -10 -9 -10 -9 0 -16 5 -16 10 0 6 4
10 9 10 6 0 13 -4 16 -10z m1840 0 c-3 -5 -14 -10 -23 -10 -15 0 -15 2 -2 10
20 13 33 13 25 0z m90 0 c3 -5 1 -10 -4 -10 -6 0 -11 5 -11 10 0 6 2 10 4 10
3 0 8 -4 11 -10z m-1989 -25 c10 -9 11 -15 4 -15 -7 0 -6 -6 4 -15 8 -8 20
-15 26 -15 6 0 8 -5 4 -11 -4 -7 -11 -6 -22 5 -14 14 -17 13 -29 -11 -16 -31
-11 -40 10 -19 13 14 16 14 27 0 11 -12 10 -13 -4 -8 -12 5 -15 2 -10 -10 3
-9 9 -16 14 -16 17 0 37 37 35 63 -2 15 0 25 5 22 4 -3 11 -32 15 -65 7 -59
25 -84 25 -34 0 14 4 23 10 19 6 -3 10 -1 10 4 0 6 -8 11 -18 11 -10 0 -19 7
-19 15 0 17 23 21 29 5 2 -6 13 -12 26 -13 15 -1 21 -6 17 -15 -3 -7 -5 -18
-5 -23 0 -4 -7 -6 -15 -3 -8 4 -15 1 -15 -5 0 -6 5 -11 10 -11 6 0 10 -4 10
-10 0 -5 -6 -10 -14 -10 -9 0 -12 -7 -9 -20 3 -12 -1 -22 -10 -26 -9 -3 -19
-19 -22 -35 -6 -25 -9 -28 -21 -18 -21 17 -29 3 -10 -16 19 -20 20 -23 4 -22
-35 1 -47 -4 -42 -17 3 -8 1 -17 -5 -21 -15 -9 -14 -25 2 -21 6 1 9 1 5 -1
-14 -8 -9 -23 7 -23 8 0 15 -4 15 -10 0 -17 -15 -11 -38 15 -12 14 -28 25 -34
25 -8 -1 -6 -6 5 -14 18 -14 24 -80 7 -91 -6 -3 -9 9 -7 32 2 36 0 38 -28 38
-21 0 -33 -7 -42 -25 -7 -14 -13 -20 -13 -15 0 6 -10 15 -22 20 -13 6 -23 17
-24 25 0 8 1 10 3 4 8 -22 46 -24 60 -4 8 11 21 20 29 20 8 0 13 4 9 9 -3 6
-17 4 -33 -5 -32 -16 -52 -18 -52 -4 0 6 9 10 20 10 11 0 20 6 20 14 0 8 4 18
10 21 6 3 7 -1 4 -10 -5 -11 -1 -14 12 -12 11 1 20 6 21 11 1 5 7 13 15 17 11
7 10 11 -2 19 -19 13 -33 13 -25 0 3 -5 1 -10 -4 -10 -6 0 -11 6 -11 14 0 7
-6 18 -12 24 -16 13 -15 69 0 84 15 15 15 45 1 53 -6 4 -8 13 -5 21 3 9 -1 14
-13 14 -26 0 -51 10 -51 21 0 4 23 1 51 -7 28 -9 54 -13 57 -10 3 3 -1 6 -10
6 -17 0 -59 45 -51 54 4 3 13 -3 21 -15 9 -13 23 -19 40 -17 24 3 27 7 25 41
-3 41 1 44 23 22z m1949 -28 c0 -27 4 -32 27 -35 17 -2 31 4 40 16 12 18 15
19 33 5 16 -13 17 -15 3 -10 -12 4 -27 -3 -44 -20 -19 -19 -21 -24 -7 -19 37
15 76 19 70 9 -7 -10 -55 -23 -89 -24 -21 0 -23 -10 -6 -27 9 -9 16 -8 32 5
12 10 15 11 9 3 -16 -18 -17 -42 -1 -58 17 -17 19 -69 2 -83 -17 -14 -18 -40
-1 -59 6 -8 2 -6 -10 4 -13 10 -20 23 -17 28 3 5 -5 7 -18 5 -12 -2 -17 -2
-10 0 6 3 12 9 12 14 0 6 4 8 9 5 25 -16 37 41 17 84 -7 18 -76 27 -76 11 0
-6 7 -8 15 -5 8 4 15 3 15 -1 0 -3 -7 -13 -15 -21 -8 -9 -15 -19 -15 -24 0 -5
7 -15 15 -24 19 -18 19 -30 1 -23 -9 4 -13 -4 -12 -31 1 -20 7 -37 15 -40 10
-3 11 2 7 19 l-7 24 20 -25 c12 -14 30 -35 42 -46 l21 -21 -39 1 c-37 1 -38 0
-37 -31 1 -18 -2 -33 -7 -33 -5 0 -9 9 -9 21 0 11 -4 17 -10 14 -5 -3 -10 -1
-10 5 0 7 -7 10 -15 6 -9 -3 -15 0 -15 9 0 8 7 15 15 15 8 0 15 5 15 11 0 5
-4 7 -10 4 -5 -3 -10 -1 -10 5 0 7 7 10 15 6 17 -6 21 9 4 19 -6 4 -8 13 -5
20 3 8 -5 16 -20 19 -23 6 -34 26 -14 26 6 0 10 5 10 11 0 6 -7 9 -15 6 -8 -4
-17 -2 -20 3 -3 5 4 11 15 15 17 5 29 25 16 25 -2 0 -11 3 -20 6 -11 4 -16 0
-16 -12 0 -16 -2 -17 -10 -4 -6 10 -6 16 0 18 6 2 10 11 10 19 0 9 -6 13 -14
10 -15 -6 -31 18 -27 41 1 6 -3 12 -8 12 -6 0 -15 10 -22 21 -9 17 -8 20 2 14
9 -6 11 -4 6 8 -3 9 1 18 10 21 11 4 14 2 9 -9 -3 -9 0 -15 9 -15 9 0 15 9 15
22 0 26 9 19 15 -11 3 -16 -1 -21 -16 -21 -10 0 -19 -4 -19 -10 0 -5 7 -10 15
-10 13 0 14 -4 5 -20 -8 -16 -8 -20 3 -20 10 0 17 18 22 58 9 70 11 75 34 60
15 -9 22 -8 36 5 9 9 12 17 6 17 -6 0 -11 5 -11 11 0 5 5 7 10 4 6 -3 10 -1
10 6 0 7 3 9 8 5 4 -4 7 -22 7 -39z m-1795 -43 c0 -2 -7 -4 -15 -4 -8 0 -15 4
-15 10 0 5 7 7 15 4 8 -4 15 -8 15 -10z m1924 -60 c3 -8 2 -12 -4 -9 -6 3 -10
10 -10 16 0 14 7 11 14 -7z m-2222 -61 c-4 -60 -2 -66 12 -54 9 7 16 9 16 3 0
-5 -7 -13 -16 -16 -11 -4 -15 -15 -12 -36 2 -16 1 -27 -4 -24 -4 3 -8 12 -8
20 0 8 -8 15 -17 15 -15 1 -16 2 -2 6 12 3 16 16 16 53 0 30 -4 50 -11 50 -8
0 -8 3 0 8 6 4 13 15 17 25 11 29 12 20 9 -50z m1286 -215 l-3 -243 -175 0
-175 0 -3 243 -2 242 180 0 180 0 -2 -242z m953 233 c-8 -5 -10 -14 -6 -22 6
-11 5 -11 -5 -2 -14 12 -6 33 13 33 8 0 7 -3 -2 -9z m-2271 -53 c0 -4 -9 1
-20 12 -11 11 -20 23 -20 27 0 3 9 -2 20 -12 11 -10 20 -22 20 -27z m708 18
c21 4 24 3 12 -5 -13 -10 -13 -12 0 -22 12 -8 9 -9 -13 -4 -22 4 -27 3 -21 -7
4 -7 3 -10 -1 -6 -5 5 -9 20 -11 35 -1 16 0 22 3 16 3 -8 15 -11 31 -7z m902
-18 c0 -22 -3 -28 -9 -20 -5 9 -17 11 -34 6 -23 -5 -27 -3 -27 15 0 13 6 21
18 21 14 0 15 -2 2 -10 -8 -5 -12 -12 -8 -15 7 -7 48 16 48 27 0 5 2 8 5 8 3
0 5 -15 5 -32z m630 28 c0 -3 -4 -8 -10 -11 -5 -3 -10 -1 -10 4 0 6 5 11 10
11 6 0 10 -2 10 -4z m62 -21 c-3 -20 0 -25 17 -25 13 0 19 -4 16 -10 -4 -6 -2
-17 4 -24 9 -11 6 -15 -13 -18 -20 -4 -24 -1 -20 15 2 12 -3 28 -11 37 -9 10
-13 25 -9 34 10 25 22 19 16 -9z m-1522 -5 c0 -5 -4 -10 -10 -10 -5 0 -10 5
-10 10 0 6 5 10 10 10 6 0 10 -4 10 -10z m745 0 c-3 -5 -10 -10 -16 -10 -5 0
-9 5 -9 10 0 6 7 10 16 10 8 0 12 -4 9 -10z m620 -10 c3 -5 2 -10 -4 -10 -5 0
-13 5 -16 10 -3 6 -2 10 4 10 5 0 13 -4 16 -10z m113 -16 c8 5 10 2 6 -8 -4
-11 0 -16 12 -17 11 0 14 -3 7 -6 -16 -6 -62 28 -63 46 0 11 4 10 13 -4 8 -10
19 -15 25 -11z m-2286 -20 c-3 -16 -11 -24 -24 -24 -13 0 -17 4 -11 13 4 6 6
20 5 29 -2 12 2 15 16 11 14 -3 18 -11 14 -29z m865 -14 c-4 -16 -2 -32 3 -35
6 -3 10 -17 10 -29 0 -13 7 -29 15 -36 31 -26 16 -47 -62 -93 -43 -25 -90 -49
-105 -52 l-28 -7 0 126 c0 122 1 126 23 130 12 3 40 9 62 14 22 6 51 10 64 11
21 1 23 -2 18 -29z m683 20 c101 -22 90 -4 90 -150 l0 -129 -45 20 c-25 11
-72 36 -105 56 -62 36 -74 59 -45 83 9 7 14 19 11 26 -2 6 1 20 9 31 8 10 11
30 8 46 -6 31 2 33 77 17z m-1560 -66 c0 -8 -4 -12 -10 -9 -5 3 -10 13 -10 21
0 8 5 12 10 9 6 -3 10 -13 10 -21z m2380 6 c0 -5 -2 -10 -4 -10 -3 0 -8 5 -11
10 -3 6 -1 10 4 10 6 0 11 -4 11 -10z m21 -13 c-10 -9 -11 -8 -5 6 3 10 9 15
12 12 3 -3 0 -11 -7 -18z m-140 -17 c16 0 20 -3 13 -10 -12 -12 -58 1 -69 20
-6 9 -2 9 13 1 11 -6 31 -11 43 -11z m-2268 -7 c-7 -2 -21 -2 -30 0 -10 3 -4
5 12 5 17 0 24 -2 18 -5z m2424 -20 c1 -23 0 -24 -6 -9 -4 11 -16 23 -27 27
-16 7 -16 8 6 8 21 1 26 -4 27 -26z m-55 -34 c5 -3 1 -8 -10 -11 -16 -4 -18
-1 -14 21 4 17 7 21 10 11 3 -8 9 -18 14 -21z m-2339 2 c3 -14 0 -17 -14 -14
-14 4 -15 8 -6 19 15 17 14 17 20 -5z m2267 8 c0 -5 -4 -8 -9 -4 -5 3 -17 -2
-25 -11 -14 -13 -16 -13 -16 -1 0 15 14 25 38 26 6 1 12 -4 12 -10z m-2320
-19 c0 -5 -5 -10 -11 -10 -5 0 -7 -5 -3 -12 4 -7 3 -8 -4 -4 -6 4 -9 13 -5 21
6 17 23 20 23 5z m2444 -6 c9 -24 7 -36 -4 -29 -6 4 -8 11 -5 16 4 5 1 9 -4 9
-6 0 -11 5 -11 10 0 16 17 12 24 -6z m-2476 -48 c-2 -1 -11 -8 -20 -15 -16
-12 -17 -10 -15 17 2 28 3 29 20 15 9 -9 16 -17 15 -17z m57 24 c-3 -5 -12
-10 -18 -10 -7 0 -6 4 3 10 19 12 23 12 15 0z m163 -8 c7 7 12 9 12 5 0 -4 -8
-15 -18 -25 -15 -15 -20 -16 -31 -5 -8 9 -9 13 0 13 6 0 9 7 5 18 -6 16 -5 16
7 0 11 -13 16 -15 25 -6z m2075 -25 c-3 -4 -10 -3 -17 2 -7 6 -16 8 -19 4 -4
-3 -7 1 -7 9 0 13 4 14 24 5 13 -7 22 -15 19 -20z m-1973 13 c0 -5 -5 -10 -11
-10 -5 0 -7 5 -4 10 3 6 8 10 11 10 2 0 4 -4 4 -10z m1870 -6 c0 -2 -7 -4 -15
-4 -8 0 -15 4 -15 10 0 5 7 7 15 4 8 -4 15 -8 15 -10z m220 12 c0 -3 -4 -8
-10 -11 -5 -3 -10 -1 -10 4 0 6 5 11 10 11 6 0 10 -2 10 -4z m103 -2 c11 -11
-3 -24 -18 -18 -8 4 -12 10 -9 15 6 11 18 12 27 3z m-2466 -34 c13 0 13 -3 3
-15 -12 -14 -15 -14 -32 2 -14 13 -16 18 -6 24 7 5 15 4 16 -1 2 -6 11 -10 19
-10z m2427 -5 c-8 -21 -31 -25 -44 -9 -10 11 -9 14 4 14 9 0 16 4 16 10 0 5 6
7 14 4 8 -3 12 -12 10 -19z m-2299 5 c3 -5 1 -10 -4 -10 -6 0 -11 5 -11 10 0
6 2 10 4 10 3 0 8 -4 11 -10z m141 1 c-3 -5 -17 -8 -31 -8 -14 0 -28 3 -31 8
-3 5 11 9 31 9 20 0 34 -4 31 -9z m654 -1 c0 -5 -4 -10 -10 -10 -5 0 -10 5
-10 10 0 6 5 10 10 10 6 0 10 -4 10 -10z m560 0 c0 -5 -4 -10 -10 -10 -5 0
-10 5 -10 10 0 6 5 10 10 10 6 0 10 -4 10 -10z m660 0 c0 -5 -7 -7 -15 -4 -8
4 -15 8 -15 10 0 2 7 4 15 4 8 0 15 -4 15 -10z m35 0 c-3 -5 -10 -10 -16 -10
-5 0 -9 5 -9 10 0 6 7 10 16 10 8 0 12 -4 9 -10z m99 -6 c3 -8 2 -12 -4 -9 -6
3 -10 10 -10 16 0 14 7 11 14 -7z m-141 -25 c4 -3 1 -12 -8 -19 -13 -11 -15
-9 -15 15 0 16 3 24 8 19 4 -5 11 -11 15 -15z m-1863 -11 c0 -16 -3 -19 -11
-11 -6 6 -8 16 -5 22 11 17 16 13 16 -11z m598 -3 c13 -13 20 -30 17 -36 -6
-8 -10 -7 -16 2 -13 21 -22 3 -9 -20 11 -21 -3 -31 -15 -10 -4 6 -13 8 -21 5
-8 -3 -14 1 -14 9 0 9 6 12 15 9 8 -4 15 -1 15 5 0 6 -9 11 -19 11 -10 0 -21
7 -25 15 -5 13 -2 14 15 4 11 -6 24 -7 27 -3 4 4 1 9 -5 11 -7 3 -13 9 -13 14
0 17 25 9 48 -16z m692 16 c0 -5 -6 -11 -12 -14 -7 -2 -10 -7 -6 -11 3 -4 16
-3 27 4 17 9 21 8 21 -5 0 -9 -9 -15 -25 -15 -14 0 -25 -5 -25 -11 0 -6 9 -8
21 -4 16 5 20 3 16 -6 -2 -8 -10 -13 -16 -11 -7 1 -19 -5 -28 -13 -20 -21 -28
-12 -13 15 13 24 4 43 -9 21 -6 -9 -10 -10 -16 -2 -3 6 4 23 17 36 23 25 48
33 48 16z m655 -1 c-3 -5 -12 -10 -18 -10 -7 0 -6 4 3 10 19 12 23 12 15 0z
m-2028 -12 c-2 -7 3 -18 11 -24 10 -7 1 -10 -37 -9 -28 1 -54 5 -58 10 -5 4 3
5 16 2 27 -7 65 9 56 24 -4 5 -1 9 5 9 7 0 10 -6 7 -12z m30 -10 c-3 -8 -6 -5
-6 6 -1 11 2 17 5 13 3 -3 4 -12 1 -19z m818 -148 c63 0 85 -3 85 -13 0 -17
-53 -163 -92 -254 l-31 -73 -129 0 -130 0 7 33 c4 17 22 70 41 117 19 46 34
88 34 92 0 4 28 65 63 135 l62 128 3 -82 3 -83 84 0z m439 93 c18 -38 46 -97
60 -133 15 -36 33 -78 41 -95 21 -46 65 -177 65 -192 0 -11 -26 -13 -131 -11
l-130 3 -30 70 c-32 76 -89 239 -89 254 0 6 37 11 83 13 l82 3 3 78 c2 42 5
77 7 77 3 0 20 -30 39 -67z m-684 8 c0 -8 -6 -11 -15 -7 -8 3 -15 1 -15 -4 0
-6 18 -10 39 -10 31 0 41 -5 46 -20 7 -22 -8 -55 -28 -63 -10 -4 -13 -15 -9
-34 5 -25 3 -26 -11 -15 -9 8 -14 19 -11 27 3 7 1 16 -5 20 -6 3 -11 -1 -11
-9 0 -9 -7 -16 -15 -16 -8 0 -15 5 -15 10 0 6 -7 10 -15 10 -8 0 -15 -4 -15
-10 0 -5 -7 -10 -15 -10 -21 0 -19 19 3 27 24 9 42 35 36 53 -3 8 6 4 21 -10
31 -29 65 -37 65 -14 0 8 -4 12 -10 9 -5 -3 -18 -1 -27 4 -16 9 -16 10 5 11
12 0 22 5 22 11 0 6 -8 9 -19 6 -35 -9 -49 9 -37 47 9 30 12 32 23 17 7 -9 13
-22 13 -30z m835 29 c-3 -5 -2 -18 3 -27 7 -14 3 -24 -17 -43 -23 -23 -30 -24
-58 -15 -30 10 -31 11 -13 23 11 7 27 12 35 12 8 0 15 9 15 20 0 23 21 50 33
43 4 -2 5 -8 2 -13z m633 7 c12 3 22 1 22 -4 0 -8 -32 -10 -85 -5 -16 2 -17 4
-6 11 9 6 22 6 31 1 9 -5 26 -6 38 -3z m-2168 -27 c0 -5 -2 -10 -4 -10 -3 0
-8 5 -11 10 -3 6 -1 10 4 10 6 0 11 -4 11 -10z m2207 -12 c-3 -8 -6 -5 -6 6
-1 11 2 17 5 13 3 -3 4 -12 1 -19z m-2337 -2 c0 -8 -4 -17 -9 -21 -6 -3 -9 4
-8 15 1 23 17 28 17 6z m2255 4 c3 -5 2 -10 -4 -10 -5 0 -13 5 -16 10 -3 6 -2
10 4 10 5 0 13 -4 16 -10z m218 -10 c3 -11 1 -18 -4 -14 -5 3 -9 12 -9 20 0
20 7 17 13 -6z m-2323 -10 c12 0 18 5 15 10 -3 6 -1 10 5 10 25 0 2 -23 -35
-35 -33 -12 -42 -12 -64 1 -26 15 -26 15 14 10 22 -2 32 -2 23 0 -10 3 -18 10
-18 15 0 6 7 6 19 -1 11 -5 29 -10 41 -10z m2146 11 c-7 -11 74 -24 100 -16
12 4 10 1 -6 -9 -14 -8 -33 -13 -42 -10 -22 7 -24 -12 -2 -20 8 -3 13 -10 9
-15 -3 -5 5 -12 17 -14 20 -4 20 -4 -4 -6 -16 0 -29 -8 -32 -18 -3 -11 -4 -8
-3 7 1 14 -3 25 -10 25 -7 0 -20 10 -28 23 -15 20 -15 22 0 22 9 0 14 -4 10
-9 -3 -5 -1 -12 4 -15 5 -3 11 3 14 14 3 14 -1 20 -16 22 -21 3 -37 28 -17 28
6 0 9 -4 6 -9z m74 -1 c0 -5 -5 -10 -11 -10 -5 0 -7 5 -4 10 3 6 8 10 11 10 2
0 4 -4 4 -10z m-2126 -19 c-5 -5 -20 -12 -34 -16 -23 -6 -23 -5 5 14 28 19 49
21 29 2z m1953 -21 c0 -16 -4 -30 -9 -30 -9 0 -11 22 -2 44 9 23 11 20 11 -14z
m53 19 c0 -5 5 -7 10 -4 6 3 10 1 10 -5 0 -7 -8 -9 -22 -5 -34 11 -46 25 -20
25 12 0 22 -5 22 -11z m-2185 -20 c11 -17 -1 -21 -15 -4 -8 9 -8 15 -2 15 6 0
14 -5 17 -11z m115 3 c0 -14 -24 -32 -43 -32 -11 0 -17 -5 -14 -12 3 -9 -8
-13 -38 -13 -24 0 -41 3 -38 8 2 4 -1 7 -6 7 -6 0 -11 5 -11 12 0 9 3 9 12 0
15 -15 68 -16 68 -2 0 19 24 39 48 40 12 0 22 -4 22 -8z m1512 -1 c-11 -7 -12
-12 -1 -29 7 -11 21 -23 31 -25 22 -6 24 -27 3 -27 -8 0 -15 5 -15 10 0 6 -7
10 -15 10 -8 0 -15 -4 -15 -10 0 -5 -7 -10 -15 -10 -8 0 -15 5 -15 10 0 6 -5
10 -11 10 -6 0 -9 -6 -6 -13 3 -8 1 -20 -4 -28 -8 -12 -10 -12 -18 0 -5 8 -7
21 -4 29 4 8 -1 19 -10 24 -10 5 -17 14 -17 20 0 7 4 7 13 1 20 -16 45 -11 69
14 12 13 26 23 32 23 6 0 5 -4 -2 -9z m718 -6 c-7 -9 -15 -13 -17 -11 -7 7 7
26 19 26 6 0 6 -6 -2 -15z m-2130 -14 c0 -14 -28 -33 -42 -28 -8 4 -7 6 5 6 9
1 17 8 17 16 0 8 5 15 10 15 6 0 10 -4 10 -9z m-63 -12 c-14 -8 -22 -8 -30 0
-8 8 -3 11 19 11 25 -1 27 -2 11 -11z m2058 1 c-3 -5 -10 -10 -16 -10 -5 0 -9
5 -9 10 0 6 7 10 16 10 8 0 12 -4 9 -10z m-41 -19 c4 -5 -3 -7 -14 -4 -23 6
-26 13 -6 13 8 0 17 -4 20 -9z m-1739 -20 c-3 -12 0 -21 10 -25 22 -8 19 -26
-5 -26 -11 0 -20 -4 -20 -10 0 -5 -4 -10 -9 -10 -8 0 -9 23 -2 78 0 6 8 12 17
12 10 0 13 -6 9 -19z m92 -3 c25 -23 29 -43 12 -54 -12 -7 -69 44 -69 63 0 20
31 15 57 -9z m101 -5 c-3 -31 -34 -44 -44 -19 -9 24 3 46 26 46 17 0 21 -5 18
-27z m1126 12 c7 -20 -3 -45 -20 -45 -13 0 -34 30 -34 49 0 17 47 13 54 -4z
m116 4 c0 -6 -14 -24 -30 -41 -25 -25 -33 -28 -46 -17 -13 11 -11 16 12 41 28
28 64 38 64 17z m62 -18 c2 -16 1 -37 -3 -47 -4 -11 -8 -14 -8 -8 -1 7 -11 15
-23 18 -22 6 -22 7 -5 20 10 8 15 20 11 30 -4 10 -1 16 9 16 9 0 16 -12 19
-29z m62 13 c18 -17 22 -39 6 -29 -11 7 -33 45 -26 45 2 0 12 -7 20 -16z
m-1984 -4 c0 -5 -5 -10 -11 -10 -5 0 -7 5 -4 10 3 6 8 10 11 10 2 0 4 -4 4
-10z m30 0 c0 -5 -2 -10 -4 -10 -3 0 -8 5 -11 10 -3 6 -1 10 4 10 6 0 11 -4
11 -10z m310 -5 c0 -8 -4 -15 -10 -15 -5 0 -7 7 -4 15 4 8 8 15 10 15 2 0 4
-7 4 -15z m1970 11 c0 -11 -19 -15 -25 -6 -3 5 1 10 9 10 9 0 16 -2 16 -4z
m25 -6 c3 -5 1 -10 -4 -10 -6 0 -11 5 -11 10 0 6 2 10 4 10 3 0 8 -4 11 -10z
m-2040 -10 c-3 -5 -12 -10 -18 -10 -7 0 -6 4 3 10 19 12 23 12 15 0z m1755
-11 c0 -6 6 -9 14 -6 8 3 17 -1 20 -9 4 -9 2 -12 -5 -8 -6 4 -15 0 -20 -7 -6
-10 -10 -9 -15 6 -4 11 -12 23 -18 27 -7 5 -4 8 7 8 9 0 17 -5 17 -11z m-1778
-37 c-6 -16 -7 -16 -10 1 -2 11 -9 16 -17 13 -9 -3 -12 0 -8 9 4 11 10 12 24
5 12 -7 16 -16 11 -28z m103 29 c3 -5 2 -12 -3 -15 -5 -3 -9 1 -9 9 0 17 3 19
12 6z m834 -37 c-15 -14 -16 -13 -15 15 1 26 3 28 16 16 12 -13 12 -17 -1 -31z
m748 31 c0 -8 -4 -12 -9 -9 -5 3 -6 10 -3 15 9 13 12 11 12 -6z m-1823 -56
c-4 -8 -9 -7 -14 1 -4 7 -13 9 -19 6 -15 -10 -14 -26 3 -26 17 0 25 -29 15
-55 -4 -11 -8 -14 -8 -7 -1 6 -6 12 -12 12 -6 0 -9 -7 -5 -15 3 -9 0 -15 -8
-15 -8 0 -16 -3 -19 -7 -2 -5 -2 -1 0 7 16 56 15 69 -6 82 -27 16 -27 28 -1
21 12 -3 20 0 20 6 0 7 4 10 9 6 5 -3 12 -1 16 5 3 6 -2 13 -11 17 -16 6 -16
7 2 13 14 6 22 1 32 -17 7 -13 10 -28 6 -34z m26 51 c0 -5 -4 -10 -9 -10 -6 0
-13 5 -16 10 -3 6 1 10 9 10 9 0 16 -4 16 -10z m580 -11 c0 -13 -56 -39 -85
-39 -22 0 -26 4 -23 22 2 16 12 24 33 28 36 7 75 1 75 -11z m383 14 c-9 -3
-10 -10 -3 -24 8 -15 7 -17 -5 -13 -24 10 -17 45 9 43 6 0 6 -3 -1 -6z m564
-15 c18 -15 4 -38 -24 -38 -28 0 -83 26 -83 40 0 20 81 18 107 -2z m498 12
c-3 -5 -10 -10 -16 -10 -5 0 -9 5 -9 10 0 6 7 10 16 10 8 0 12 -4 9 -10z
m-1012 -7 c-7 -2 -19 -2 -25 0 -7 3 -2 5 12 5 14 0 19 -2 13 -5z m1047 -13
c-11 -11 -20 -25 -20 -31 0 -5 -4 -7 -10 -4 -5 3 -10 10 -10 15 0 14 30 40 46
40 10 0 9 -5 -6 -20z m45 -26 c9 3 12 0 8 -10 -3 -7 -9 -14 -13 -14 -15 0 -22
-40 -10 -55 7 -9 9 -26 5 -46 -6 -24 -4 -30 6 -26 8 2 13 9 12 15 -2 6 4 9 12
6 8 -4 15 -12 15 -20 0 -17 17 -19 22 -3 6 18 78 2 78 -16 0 -8 -3 -14 -7 -14
-25 4 -43 -3 -43 -16 0 -18 5 -18 30 -5 15 8 24 6 40 -10 l21 -21 -63 2 c-78
3 -122 22 -113 50 5 15 2 19 -16 19 -18 0 -19 -2 -9 -15 19 -23 -7 -19 -33 5
l-21 21 23 -3 c19 -2 25 2 28 25 2 15 -1 27 -6 27 -6 0 -8 7 -5 15 4 9 -3 16
-21 21 -23 6 -25 8 -11 16 9 5 14 13 11 19 -4 5 1 9 10 9 11 0 15 5 12 14 -3
7 0 19 6 25 9 9 13 8 15 -4 2 -9 10 -14 17 -11z m-2285 12 c0 -3 -4 -8 -10
-11 -5 -3 -10 -1 -10 4 0 6 5 11 10 11 6 0 10 -2 10 -4z m2380 -6 c0 -5 -2
-10 -4 -10 -3 0 -8 5 -11 10 -3 6 -1 10 4 10 6 0 11 -4 11 -10z m-1192 -20
c15 -1 14 -3 -2 -15 -11 -8 -17 -17 -15 -20 9 -8 49 7 49 20 0 7 6 18 14 24
11 10 16 8 21 -8 3 -10 3 -31 -1 -45 -5 -20 -2 -26 10 -26 9 0 16 -4 16 -10 0
-5 -4 -10 -10 -10 -5 0 -10 -5 -10 -11 0 -6 7 -9 15 -5 10 3 15 -1 15 -11 0
-9 7 -21 15 -27 11 -8 14 -20 9 -44 -5 -27 -11 -32 -34 -32 -16 0 -31 6 -34
13 -5 10 -7 10 -12 0 -3 -7 -13 -13 -22 -13 -14 0 -14 1 0 13 21 16 32 98 12
90 -8 -3 -14 1 -14 11 0 9 -5 16 -11 16 -5 0 -7 -4 -4 -10 3 -5 -1 -10 -9 -10
-9 0 -16 5 -16 10 0 6 -4 10 -10 10 -5 0 -10 -6 -10 -14 0 -9 -7 -12 -20 -9
-11 3 -20 0 -20 -6 0 -6 5 -11 10 -11 13 0 13 -27 -1 -32 -6 -2 1 -16 15 -31
25 -27 22 -39 -3 -14 -11 10 -14 10 -18 0 -5 -15 -59 -18 -67 -4 -4 5 3 7 14
4 30 -8 24 12 -7 23 l-26 9 25 24 c15 15 24 32 20 40 -3 11 -2 13 6 6 5 -5 12
-19 15 -30 3 -13 5 -9 6 13 0 17 -3 32 -9 32 -5 0 -10 5 -10 10 0 6 7 10 15
10 8 0 15 7 15 16 0 8 -5 12 -11 8 -12 -7 -3 34 11 50 11 11 30 -1 30 -20 0
-27 20 -14 21 14 0 15 3 21 6 15 2 -7 12 -13 21 -13z m407 10 c3 -5 1 -10 -4
-10 -6 0 -11 5 -11 10 0 6 2 10 4 10 3 0 8 -4 11 -10z m-1055 -14 c0 -12 -47
-36 -70 -36 -15 0 -21 33 -8 42 22 13 78 10 78 -6z m1353 2 c11 -9 14 -18 8
-27 -7 -11 -15 -11 -45 -1 -43 14 -49 40 -8 40 16 0 36 -6 45 -12z m-1130 -29
c-3 -11 -14 -19 -25 -19 -14 0 -18 5 -14 16 4 12 2 15 -9 11 -8 -4 -17 -2 -20
3 -5 9 41 18 61 12 7 -2 10 -12 7 -23z m891 0 c-19 -21 -39 -25 -49 -9 -14 22
3 37 35 32 30 -4 30 -5 14 -23z m758 9 c-5 -23 -5 -23 16 -4 12 11 22 15 23
10 1 -11 -2 -69 -4 -70 -1 -1 -12 -5 -24 -8 -18 -6 -20 -4 -16 13 3 11 0 34
-5 51 -9 24 -8 30 3 30 9 0 11 -7 7 -22z m-2482 -3 c7 -8 15 -13 19 -11 3 2 6
-11 6 -30 0 -28 -3 -33 -17 -28 -14 4 -18 0 -18 -17 0 -43 -9 -13 -13 44 -4
58 1 68 23 42z m755 -21 c29 -31 32 -54 8 -54 -23 0 -63 39 -63 62 0 26 27 22
55 -8z m1042 10 c7 -19 -34 -64 -59 -64 -26 0 -22 19 9 52 30 32 41 35 50 12z
m-1139 -41 c-2 -27 -8 -39 -20 -41 -22 -4 -24 28 -6 58 19 31 30 24 26 -17z
m1216 -2 c7 -25 6 -35 -5 -41 -18 -12 -29 6 -29 48 0 43 21 38 34 -7z m-1550
-11 c-14 -5 -14 -7 0 -20 10 -7 15 -19 12 -27 -3 -7 -1 -13 5 -13 7 0 9 10 5
24 -3 14 -2 27 3 30 5 3 11 -14 13 -39 2 -25 -1 -46 -6 -48 -5 -2 -6 -9 -2
-16 6 -9 11 -9 22 0 12 10 13 9 8 -5 -9 -24 -54 -21 -54 4 0 11 -5 20 -11 20
-7 0 -8 11 -4 30 5 23 3 30 -8 30 -20 0 -34 -60 -17 -70 7 -4 9 -13 6 -19 -12
-19 -25 -12 -28 16 -4 39 -28 42 -28 4 0 -33 -6 -37 -30 -21 -12 8 -11 13 8
33 12 13 22 30 23 38 0 10 2 10 6 2 7 -20 23 -15 32 10 6 14 5 27 -3 36 -9 12
-8 13 6 8 10 -3 23 0 30 7 10 10 15 11 20 2 4 -6 0 -13 -8 -16z m1888 8 c20 5
21 3 10 -11 -10 -12 -11 -21 -2 -36 12 -23 30 -28 30 -9 0 6 3 9 6 6 3 -4 4
-9 2 -11 -1 -3 8 -17 22 -32 21 -22 22 -28 10 -35 -24 -16 -30 -12 -30 21 0
38 -24 35 -28 -4 -4 -28 -16 -35 -28 -15 -4 6 -2 14 4 16 14 4 16 41 3 61 -12
19 -34 3 -28 -20 3 -10 1 -22 -4 -25 -5 -3 -9 -14 -9 -25 0 -24 -45 -27 -54
-3 -5 14 -4 15 8 5 11 -9 16 -9 21 0 4 6 1 16 -6 21 -11 8 -10 9 3 4 10 -3 20
-1 23 4 4 6 -1 10 -9 10 -8 0 -17 4 -20 9 -4 5 4 7 15 4 16 -5 20 -2 17 8 -3
8 -11 13 -17 12 -15 -4 -14 4 6 38 13 22 19 26 25 15 5 -9 16 -12 30 -8z
m-1638 6 c18 -7 12 -24 -10 -24 -8 0 -14 7 -14 15 0 17 2 18 24 9z m1366 -20
c0 -2 -7 -4 -15 -4 -8 0 -15 4 -15 10 0 5 7 7 15 4 8 -4 15 -8 15 -10z m-1889
-38 c26 4 39 3 39 -5 0 -6 5 -11 10 -11 6 0 10 8 10 18 0 10 7 19 15 19 8 0
15 -6 15 -14 0 -7 5 -13 10 -13 6 0 10 5 10 10 0 6 5 10 11 10 5 0 8 -4 4 -9
-3 -5 0 -13 6 -17 6 -3 15 0 20 7 7 12 9 12 9 0 0 -14 -28 -40 -44 -41 -5 0
-3 7 4 15 10 13 9 15 -10 15 -17 0 -21 -4 -17 -20 7 -29 -25 -43 -108 -47 -52
-2 -66 0 -52 8 9 6 15 15 11 21 -6 9 11 6 54 -9 6 -3 12 2 12 11 0 9 -5 16
-12 16 -18 0 -48 31 -47 49 1 13 2 13 6 -2 4 -14 12 -16 44 -11z m714 4 c26
10 27 9 20 -17 -6 -27 -25 -47 -34 -37 -3 3 1 10 9 15 11 7 2 9 -32 7 -46 -3
-48 -2 -47 22 0 23 1 23 9 5 5 -11 9 -17 11 -12 3 14 7 27 8 35 1 4 8 -1 15
-11 11 -14 18 -16 41 -7z m1041 -16 c8 3 14 0 14 -8 0 -9 -14 -12 -47 -10 -27
2 -42 1 -35 -2 6 -3 12 -10 12 -15 0 -14 -24 -6 -32 11 -4 8 -7 23 -7 32 -1
15 2 16 25 6 22 -10 27 -9 37 7 11 19 12 19 15 -3 2 -16 8 -22 18 -18z m-12
-42 c2 -4 -5 -9 -17 -9 -17 -2 -19 0 -7 7 18 12 18 12 24 2z m-1351 -12 c8 0
8 -3 0 -11 -13 -13 -43 -5 -43 12 0 6 7 8 16 5 9 -3 21 -6 27 -6z m1651 -5
c-7 -16 -44 -21 -44 -6 0 8 16 16 42 20 4 0 5 -6 2 -14z"/>
<path d="M4265 4140 c-3 -5 -1 -10 4 -10 6 0 11 5 11 10 0 6 -2 10 -4 10 -3 0
-8 -4 -11 -10z"/>
<path d="M4194 3969 c-3 -6 0 -15 7 -20 11 -7 9 -9 -6 -9 -19 -1 -19 -1 -2
-11 22 -13 23 -12 32 24 6 21 4 27 -8 27 -9 0 -19 -5 -23 -11z"/>
<path d="M4230 3930 c0 -5 5 -10 11 -10 5 0 7 5 4 10 -3 6 -8 10 -11 10 -2 0
-4 -4 -4 -10z"/>
<path d="M3785 4140 c-3 -5 -1 -10 4 -10 6 0 11 5 11 10 0 6 -2 10 -4 10 -3 0
-8 -4 -11 -10z"/>
<path d="M3610 3900 c0 -5 5 -10 11 -10 5 0 7 5 4 10 -3 6 -8 10 -11 10 -2 0
-4 -4 -4 -10z"/>
<path d="M3855 3860 c-3 -5 -1 -10 4 -10 6 0 11 5 11 10 0 6 -2 10 -4 10 -3 0
-8 -4 -11 -10z"/>
<path d="M4460 3499 c0 -5 5 -7 10 -4 6 3 10 8 10 11 0 2 -4 4 -10 4 -5 0 -10
-5 -10 -11z"/>
<path d="M3543 3565 c0 -22 2 -30 4 -17 2 12 2 30 0 40 -3 9 -5 -1 -4 -23z"/>
<path d="M3585 3500 c3 -5 8 -10 11 -10 2 0 4 5 4 10 0 6 -5 10 -11 10 -5 0
-7 -4 -4 -10z"/>
<path d="M3420 3475 c0 -9 5 -15 11 -13 6 2 11 8 11 13 0 5 -5 11 -11 13 -6 2
-11 -4 -11 -13z"/>
<path d="M2980 2532 c0 -3 7 -13 15 -22 12 -13 12 -20 2 -40 -7 -14 -13 -38
-12 -55 0 -24 7 -33 33 -45 28 -13 32 -19 27 -43 -3 -20 -1 -27 8 -24 6 2 12
20 13 39 1 27 -3 35 -12 31 -18 -7 -18 5 1 23 8 9 15 19 15 24 0 5 -7 15 -15
24 -8 8 -15 20 -15 26 0 7 -7 9 -17 6 -15 -6 -15 -4 2 14 10 11 13 20 7 20 -6
0 -9 6 -6 14 4 9 -3 14 -20 14 -14 0 -26 -3 -26 -6z m65 -112 c0 -7 -7 -15
-15 -17 -13 -4 -13 -3 0 6 13 10 13 12 0 22 -13 9 -13 10 0 6 8 -2 15 -10 15
-17z"/>
<path d="M3044 2524 c3 -9 6 -21 6 -27 0 -7 5 -4 11 6 11 18 5 37 -13 37 -5 0
-7 -7 -4 -16z"/>
<path d="M3099 2520 l-24 -19 25 -1 c19 0 26 5 26 20 0 24 1 24 -27 0z"/>
<path d="M3079 2473 c0 -11 -3 -13 -6 -5 -2 6 -8 12 -13 12 -5 0 -2 -13 6 -30
9 -16 13 -34 9 -39 -10 -17 6 -61 22 -61 13 0 13 3 -1 25 -19 29 -20 36 -3 29
8 -3 13 3 13 16 0 13 -5 19 -13 16 -7 -3 -13 -1 -13 4 0 6 4 10 9 10 5 0 11 9
14 20 3 13 0 20 -9 20 -8 0 -14 -8 -15 -17z"/>
<path d="M3121 2473 c-17 -19 -6 -30 14 -13 12 10 15 10 15 0 0 -7 -7 -18 -17
-25 -9 -7 -13 -17 -9 -23 11 -19 26 -14 26 8 0 11 5 20 10 20 16 0 11 24 -8
36 -13 9 -21 8 -31 -3z"/>
<path d="M4982 2595 c-9 -16 -13 -18 -23 -7 -18 17 -29 15 -29 -6 0 -23 35
-56 49 -47 17 10 13 28 -4 21 -8 -3 -15 -1 -15 3 0 16 24 18 38 4 20 -20 38
-16 20 5 -9 9 -17 24 -20 32 -4 11 -7 10 -16 -5z"/>
<path d="M4929 2531 c7 -5 10 -14 7 -20 -5 -7 3 -11 21 -11 l28 1 -24 19 c-13
11 -28 20 -35 20 -6 0 -5 -4 3 -9z"/>
<path d="M4995 2529 c-4 -6 -5 -13 -2 -16 7 -7 27 6 27 18 0 12 -17 12 -25 -2z"/>
<path d="M5005 2499 l-20 -9 20 2 c11 2 26 -1 34 -6 9 -6 12 -5 9 4 -6 18 -18
21 -43 9z"/>
<path d="M4920 2483 c0 -15 19 -37 26 -31 3 4 -1 14 -10 23 -9 9 -16 13 -16 8z"/>
<path d="M4964 2465 c19 -29 20 -36 3 -29 -8 3 -13 -3 -13 -16 0 -13 5 -19 13
-16 17 7 16 0 -3 -29 -14 -22 -14 -25 -1 -25 17 0 26 30 22 75 -1 17 -3 38 -4
48 0 9 -8 17 -17 17 -15 0 -15 -2 0 -25z"/>
<path d="M4996 2274 c-18 -18 -21 -34 -6 -34 6 0 10 5 10 11 0 7 8 18 18 25 9
7 12 14 5 14 -6 0 -19 -7 -27 -16z"/>
<path d="M3575 1960 c-3 -5 1 -10 9 -10 9 0 16 5 16 10 0 6 -4 10 -9 10 -6 0
-13 -4 -16 -10z"/>
<path d="M4440 2030 c0 -5 7 -10 16 -10 8 0 12 5 9 10 -3 6 -10 10 -16 10 -5
0 -9 -4 -9 -10z"/>
<path d="M4421 1994 c0 -11 3 -14 6 -6 3 7 2 16 -1 19 -3 4 -6 -2 -5 -13z"/>
<path d="M2940 1979 c0 -5 5 -7 10 -4 6 3 10 8 10 11 0 2 -4 4 -10 4 -5 0 -10
-5 -10 -11z"/>
<path d="M4460 1960 c0 -5 5 -10 10 -10 6 0 10 5 10 10 0 6 -4 10 -10 10 -5 0
-10 -4 -10 -10z"/>
<path d="M5160 1630 c0 -5 5 -10 10 -10 6 0 10 5 10 10 0 6 -4 10 -10 10 -5 0
-10 -4 -10 -10z"/>
<path d="M3960 1800 c0 -5 5 -10 10 -10 6 0 10 5 10 10 0 6 -4 10 -10 10 -5 0
-10 -4 -10 -10z"/>
<path d="M4085 1800 c-3 -5 -1 -10 4 -10 6 0 11 5 11 10 0 6 -2 10 -4 10 -3 0
-8 -4 -11 -10z"/>
<path d="M3980 1766 c0 -9 7 -16 16 -16 17 0 14 22 -4 28 -7 2 -12 -3 -12 -12z"/>
<path d="M4057 1773 c-12 -11 -8 -23 8 -23 8 0 14 -4 13 -9 -2 -5 0 -9 5 -10
8 -1 8 -1 0 29 -5 20 -15 25 -26 13z"/>
<path d="M4020 1756 c0 -9 5 -16 10 -16 6 0 10 4 10 9 0 6 -4 13 -10 16 -5 3
-10 -1 -10 -9z"/>
<path d="M3960 1730 c0 -5 4 -10 9 -10 6 0 13 5 16 10 3 6 -1 10 -9 10 -9 0
-16 -4 -16 -10z"/>
<path d="M4107 1693 c-7 -10 32 -47 40 -39 3 2 -4 14 -15 26 -11 12 -22 17
-25 13z"/>
<path d="M3910 1660 c0 -5 5 -10 10 -10 6 0 10 5 10 10 0 6 -4 10 -10 10 -5 0
-10 -4 -10 -10z"/>
<path d="M4100 1630 c0 -5 4 -10 9 -10 5 0 16 -3 25 -6 9 -3 16 -1 16 6 0 6
-4 8 -10 5 -5 -3 -10 -1 -10 4 0 6 -7 11 -15 11 -8 0 -15 -4 -15 -10z"/>
<path d="M5270 1765 c0 -8 5 -15 10 -15 6 0 10 7 10 15 0 8 -4 15 -10 15 -5 0
-10 -7 -10 -15z"/>
<path d="M2770 1765 c0 -8 5 -15 10 -15 6 0 10 7 10 15 0 8 -4 15 -10 15 -5 0
-10 -7 -10 -15z"/>
<path d="M3115 1650 c3 -5 8 -10 11 -10 2 0 4 5 4 10 0 6 -5 10 -11 10 -5 0
-7 -4 -4 -10z"/>
<path d="M4940 1720 c0 -5 5 -10 10 -10 6 0 10 5 10 10 0 6 -4 10 -10 10 -5 0
-10 -4 -10 -10z"/>
<path d="M2880 1630 c0 -5 5 -10 10 -10 6 0 10 5 10 10 0 6 -4 10 -10 10 -5 0
-10 -4 -10 -10z"/>
<path d="M2730 1150 l0 -210 30 0 29 0 3 151 3 152 66 -149 c50 -115 70 -150
85 -152 17 -2 31 20 90 150 l69 153 3 -152 3 -153 24 0 25 0 0 210 0 210 -29
0 c-27 0 -31 -7 -101 -165 -40 -91 -76 -168 -80 -170 -3 -2 -39 72 -80 165
-75 169 -75 170 -107 170 l-33 0 0 -210z"/>
<path d="M5240 1187 c0 -121 -4 -177 -12 -185 -7 -7 -27 -12 -45 -12 -27 0
-37 6 -51 30 -11 19 -25 30 -39 30 -34 0 -30 -44 6 -81 25 -24 37 -29 80 -29
42 0 56 5 83 29 l33 29 3 181 3 181 -30 0 -31 0 0 -173z"/>
<path d="M3344 1270 c-37 -11 -91 -69 -100 -106 -11 -44 1 -133 23 -162 51
-68 143 -85 214 -38 l39 26 0 -25 c0 -20 5 -25 25 -25 l25 0 0 165 0 165 -25
0 c-20 0 -25 -5 -25 -26 l0 -25 -33 25 c-37 29 -98 39 -143 26z m116 -57 c36
-25 48 -43 55 -84 13 -76 -39 -144 -110 -144 -49 0 -80 22 -101 72 -18 42 -18
67 2 109 28 60 103 82 154 47z"/>
<path d="M3780 1269 c-13 -6 -33 -17 -42 -26 -17 -15 -18 -15 -18 5 0 18 -6
22 -30 22 l-30 0 0 -165 0 -165 29 0 29 0 4 121 c3 113 5 122 27 140 13 10 36
19 52 19 26 0 29 4 29 30 0 32 -9 35 -50 19z"/>
<path d="M3987 1260 c-31 -17 -37 -17 -37 -5 0 10 -10 15 -30 15 l-30 0 0
-165 0 -165 30 0 30 0 0 116 c0 114 0 116 29 145 31 31 64 36 104 18 38 -17
47 -50 47 -169 l0 -110 30 0 30 0 0 110 c0 119 9 152 47 169 40 18 73 13 104
-18 29 -29 29 -31 29 -145 l0 -116 30 0 30 0 0 93 c-1 164 -23 215 -102 239
-48 14 -109 -2 -136 -37 l-19 -24 -19 21 c-22 25 -74 48 -106 48 -13 0 -40 -9
-61 -20z"/>
<path d="M4604 1270 c-37 -11 -91 -69 -100 -106 -11 -44 1 -133 23 -162 51
-68 143 -85 214 -38 l39 26 0 -25 c0 -20 5 -25 25 -25 l25 0 0 165 0 165 -25
0 c-20 0 -25 -5 -25 -26 l0 -25 -33 25 c-37 29 -98 39 -143 26z m116 -57 c36
-25 48 -43 55 -84 13 -76 -39 -144 -110 -144 -49 0 -80 22 -101 72 -18 42 -18
67 2 109 28 60 103 82 154 47z"/>
<path d="M4660 764 c-11 -12 -10 -18 3 -32 16 -15 18 -15 33 0 19 18 12 48 -9
48 -8 0 -20 -7 -27 -16z"/>
<path d="M4070 705 l0 -66 -31 23 c-56 41 -144 20 -168 -40 -25 -65 -17 -118
23 -158 29 -29 41 -34 79 -34 30 0 53 7 71 21 l26 20 0 -20 c0 -14 6 -21 20
-21 19 0 20 7 20 170 0 163 -1 170 -20 170 -18 0 -20 -7 -20 -65z m-33 -79
c23 -20 28 -32 28 -70 0 -53 -23 -82 -72 -92 -27 -5 -37 -1 -63 24 -84 85 17
215 107 138z"/>
<path d="M2760 590 c0 -153 1 -160 20 -160 18 0 20 7 20 70 l0 70 55 0 c48 0
55 2 55 20 0 18 -7 20 -55 20 l-55 0 0 55 0 55 70 0 c56 0 70 3 70 15 0 12
-17 15 -90 15 l-90 0 0 -160z"/>
<path d="M4507 743 c-4 -3 -7 -19 -7 -35 0 -18 -5 -28 -15 -28 -8 0 -15 -7
-15 -15 0 -8 7 -15 15 -15 12 0 15 -17 15 -90 0 -77 3 -93 20 -110 28 -28 90
-28 90 0 0 16 -7 20 -30 20 -36 0 -42 18 -38 110 l3 65 33 3 c19 2 32 9 32 17
0 8 -13 15 -32 17 -29 3 -33 7 -36 36 -3 30 -19 41 -35 25z"/>
<path d="M3045 671 c-65 -30 -89 -96 -60 -167 19 -49 59 -74 118 -74 57 0 101
34 118 90 10 33 9 47 -6 86 -14 37 -25 50 -59 65 -51 23 -61 23 -111 0z m110
-46 c25 -24 34 -81 19 -120 -10 -25 -62 -47 -95 -40 -39 9 -59 40 -59 93 0 54
33 92 80 92 19 0 40 -9 55 -25z"/>
<path d="M3670 683 c-8 -3 -23 -12 -32 -21 -16 -14 -18 -13 -18 1 0 10 -8 17
-20 17 -19 0 -20 -7 -20 -125 0 -118 1 -125 20 -125 18 0 20 7 20 84 0 98 20
136 71 136 54 0 69 -28 69 -130 0 -83 1 -90 20 -90 19 0 20 7 20 96 0 109 -8
130 -55 150 -36 15 -50 16 -75 7z"/>
<path d="M4244 676 c-17 -7 -40 -26 -52 -41 -40 -51 -24 -152 30 -189 32 -23
100 -20 132 5 l26 20 0 -20 c0 -14 6 -21 20 -21 19 0 20 7 20 125 0 118 -1
125 -20 125 -13 0 -20 -7 -20 -20 l0 -21 -22 21 c-12 11 -27 20 -32 20 -6 0
-20 2 -31 5 -11 3 -34 -1 -51 -9z m107 -55 c37 -38 39 -88 5 -127 -51 -60
-146 -20 -146 62 0 44 45 94 85 94 16 0 38 -12 56 -29z"/>
<path d="M4844 679 c-92 -27 -114 -168 -36 -229 30 -24 100 -27 142 -5 58 30
78 120 40 182 -30 49 -87 70 -146 52z m97 -58 c54 -55 27 -143 -48 -157 -86
-17 -129 136 -49 174 37 18 67 13 97 -17z"/>
<path d="M5160 683 c-8 -3 -23 -12 -32 -21 -16 -14 -18 -13 -18 1 0 10 -8 17
-20 17 -19 0 -20 -7 -20 -125 0 -118 1 -125 20 -125 18 0 20 7 20 84 0 98 20
136 71 136 54 0 69 -28 69 -130 0 -83 1 -90 20 -90 19 0 20 7 20 96 0 109 -8
130 -55 150 -36 15 -50 16 -75 7z"/>
<path d="M3282 579 c3 -96 4 -102 31 -125 34 -29 101 -33 129 -7 17 15 18 15
18 0 0 -11 8 -17 25 -17 l25 0 0 125 0 125 -25 0 c-25 0 -25 -1 -25 -88 0 -99
-9 -119 -57 -128 -26 -5 -37 -1 -57 19 -24 24 -26 33 -26 112 0 80 -1 85 -21
85 -20 0 -21 -4 -17 -101z"/>
<path d="M4660 555 c0 -118 1 -125 20 -125 19 0 20 7 20 125 0 118 -1 125 -20
125 -19 0 -20 -7 -20 -125z"/>
</g>
</svg>
