<?xml version="1.0" standalone="no"?>
<!DOCTYPE svg PUBLIC "-//W3C//DTD SVG 20010904//EN"
 "http://www.w3.org/TR/2001/REC-SVG-20010904/DTD/svg10.dtd">
<svg version="1.0" xmlns="http://www.w3.org/2000/svg"
 width="1440.000000pt" height="173.000000pt" viewBox="0 0 1440.000000 173.000000"
 preserveAspectRatio="xMidYMid meet">

<g transform="translate(0.000000,173.000000) scale(0.100000,-0.100000)"
fill="#000000" stroke="none">
<path d="M0 865 l0 -865 7200 0 7200 0 0 865 0 865 -7200 0 -7200 0 0 -865z
m2032 -329 c4 -6 6 -31 4 -55 -2 -24 1 -54 6 -67 l11 -24 11 23 c16 31 80 37
96 7 15 -28 5 -40 -36 -40 -39 0 -43 -9 -14 -35 17 -15 22 -16 36 -4 15 12 17
12 12 -1 -3 -10 -18 -15 -44 -15 -30 0 -41 5 -50 23 l-11 23 -17 -26 c-23 -35
-60 -47 -123 -39 l-53 6 0 48 c0 30 5 50 12 52 10 4 10 10 0 32 -11 24 -10 34
5 64 11 23 27 39 43 43 34 8 103 -1 112 -15z m1236 8 c19 -6 12 -99 -8 -99 -8
0 -21 13 -28 28 -31 65 -74 39 -74 -44 1 -39 6 -57 18 -66 24 -18 28 -17 62
12 20 17 33 22 37 15 13 -21 -5 -60 -35 -75 -83 -43 -167 17 -163 116 4 101
82 147 191 113z m-2471 0 c12 -3 27 -19 34 -36 11 -26 10 -35 -6 -64 -18 -34
-18 -35 1 -61 30 -40 44 -40 44 -1 0 19 5 39 12 46 17 17 73 15 88 -3 19 -23
4 -45 -30 -45 -33 0 -40 -19 -15 -40 12 -10 19 -10 27 -2 18 18 32 14 17 -4
-9 -11 -25 -15 -51 -12 -21 2 -38 0 -38 -4 0 -13 -95 -9 -108 4 -9 9 -12 9
-12 0 0 -8 -21 -12 -65 -12 -67 0 -83 13 -50 40 11 9 15 32 15 82 0 52 -4 70
-15 74 -8 4 -15 15 -15 25 0 17 8 19 73 19 39 0 82 -3 94 -6z m2080 -49 c8
-22 -4 -30 -22 -15 -13 11 -15 9 -15 -14 0 -14 5 -26 12 -26 7 0 5 -5 -4 -12
-13 -11 -15 -22 -9 -60 l8 -48 -36 0 c-27 0 -32 3 -23 12 16 16 16 98 0 99
-10 0 -10 2 0 6 6 2 12 13 12 23 0 20 35 50 58 50 7 0 15 -7 19 -15z m-1113
-79 c15 -38 31 -75 37 -83 9 -10 3 -13 -31 -13 -37 0 -41 2 -30 15 16 20 -3
45 -35 45 -27 0 -40 -27 -24 -46 9 -11 6 -14 -14 -14 -25 0 -25 1 -11 28 7 15
14 30 14 33 0 22 53 120 60 113 5 -5 20 -40 34 -78z m1228 4 c-2 -45 1 -76 8
-85 11 -13 6 -15 -31 -15 -28 0 -39 3 -31 9 10 6 13 29 10 85 -3 75 -3 76 22
76 25 0 25 -1 22 -70z m-1832 40 c0 -12 7 -20 18 -21 16 -1 16 -2 0 -6 -14 -3
-18 -15 -18 -48 0 -31 5 -47 18 -55 14 -8 10 -10 -18 -8 -34 3 -35 4 -38 53
-2 27 -9 53 -15 57 -9 6 -9 8 1 8 6 0 12 9 12 20 0 13 7 20 20 20 13 0 20 -7
20 -20z m-70 -35 c0 -8 -4 -15 -10 -15 -5 0 -10 5 -10 10 0 6 -9 10 -20 10
-30 0 -24 -17 11 -35 24 -13 30 -22 27 -43 -3 -25 -7 -27 -48 -27 -37 0 -45 4
-49 20 -3 19 -3 19 16 3 11 -10 27 -18 36 -18 28 0 19 27 -13 39 -22 7 -30 16
-30 34 0 32 7 37 52 37 27 0 38 -4 38 -15z m228 -17 c11 -23 10 -32 -3 -58
-12 -24 -22 -30 -47 -30 -40 0 -68 25 -68 61 0 40 25 61 69 57 28 -2 39 -9 49
-30z m127 12 c0 -8 -8 -16 -17 -18 -10 -2 -18 2 -18 8 0 6 -4 8 -10 5 -14 -9
-13 -68 2 -83 9 -9 3 -12 -27 -12 -30 0 -36 3 -27 12 16 16 15 81 0 96 -10 10
-1 12 42 10 41 -2 55 -7 55 -18z m115 5 c19 -23 4 -45 -30 -45 -33 0 -40 -19
-14 -41 12 -10 20 -10 35 -1 10 7 19 8 19 3 0 -12 -26 -21 -60 -21 -47 0 -68
64 -33 102 20 22 66 24 83 3z m750 -47 c5 -57 5 -58 -20 -58 -24 0 -25 3 -22
40 5 54 -3 76 -23 60 -16 -14 -17 -67 -2 -87 7 -10 0 -13 -29 -13 -30 0 -35 3
-26 12 16 16 16 80 0 96 -9 9 2 11 53 9 l64 -2 5 -57z m120 47 c0 -13 -3 -13
-20 -3 -10 7 -22 9 -26 5 -9 -9 15 -37 32 -37 18 0 28 -38 14 -55 -7 -9 -30
-15 -51 -15 -33 0 -39 3 -39 22 0 20 1 20 18 5 21 -19 38 -22 46 -8 3 5 -10
18 -29 30 -37 21 -43 39 -23 59 18 18 78 16 78 -3z m130 -5 c15 -28 5 -40 -36
-40 -37 0 -43 -10 -18 -34 19 -19 26 -20 43 -3 11 10 13 9 9 -3 -3 -9 -19 -16
-40 -18 -28 -2 -40 2 -52 20 -20 28 -20 48 0 76 20 30 79 31 94 2z m200 -12
c13 -25 13 -31 0 -55 -30 -55 -120 -35 -120 25 0 64 88 86 120 30z m570 12 c0
-11 -6 -20 -14 -20 -21 0 -31 21 -15 31 22 14 29 11 29 -11z m58 -30 c2 -24 8
-50 13 -56 8 -9 -5 -12 -50 -13 -58 0 -61 1 -61 25 0 19 7 28 31 36 25 9 30
15 26 35 -4 20 -1 24 17 21 17 -2 22 -11 24 -48z m156 27 c3 -12 7 -39 9 -59
3 -35 1 -38 -23 -38 -24 0 -25 3 -22 40 5 51 -3 71 -23 63 -13 -4 -16 -17 -13
-54 3 -48 3 -49 -27 -49 -22 0 -26 3 -17 12 15 15 16 62 2 88 -9 17 -5 18 50
19 54 0 60 -2 64 -22z"/>
<path d="M1902 517 c-38 -41 -24 -88 32 -107 43 -14 60 -33 51 -60 -10 -30
-49 -25 -79 11 l-26 31 0 -34 0 -33 58 -3 c70 -4 95 16 90 69 -3 28 -10 36
-53 58 -56 29 -67 54 -34 72 21 11 26 8 51 -22 l28 -33 0 31 c0 26 -4 31 -31
37 -51 10 -64 7 -87 -17z"/>
<path d="M1940 497 c0 -8 11 -19 25 -25 20 -9 25 -9 25 1 0 17 -20 37 -37 37
-7 0 -13 -6 -13 -13z"/>
<path d="M2094 419 c-10 -17 13 -36 27 -22 12 12 4 33 -11 33 -5 0 -12 -5 -16
-11z"/>
<path d="M1900 392 c0 -14 35 -42 53 -42 17 0 24 25 10 33 -19 10 -63 17 -63
9z"/>
<path d="M3125 507 c-30 -30 -35 -42 -35 -80 0 -66 36 -107 94 -107 32 0 48 6
64 23 33 35 26 45 -8 12 -29 -28 -32 -29 -57 -15 -46 26 -56 128 -17 171 24
26 38 24 67 -11 31 -37 36 -37 32 -5 -3 33 -4 34 -58 41 -43 6 -49 4 -82 -29z"/>
<path d="M654 528 c-2 -3 2 -8 8 -10 19 -7 19 -158 0 -180 -14 -17 -12 -18 33
-18 38 0 46 3 37 12 -14 14 -16 78 -3 78 4 0 21 -20 37 -45 24 -39 32 -45 63
-45 l35 0 -26 28 c-14 15 -32 38 -41 51 -15 23 -15 25 3 38 24 17 27 65 5 83
-16 13 -144 20 -151 8z m114 -41 c4 -31 -12 -57 -34 -57 -10 0 -14 14 -14 46
0 41 2 45 23 42 16 -2 23 -11 25 -31z"/>
<path d="M735 478 c1 -13 6 -23 11 -23 5 0 10 10 12 23 2 14 -2 22 -11 22 -8
0 -13 -9 -12 -22z"/>
<path d="M906 415 c-3 -9 1 -18 10 -22 19 -7 28 2 21 22 -8 19 -23 19 -31 0z"/>
<path d="M735 360 c3 -5 8 -10 11 -10 2 0 4 5 4 10 0 6 -5 10 -11 10 -5 0 -7
-4 -4 -10z"/>
<path d="M1700 431 c0 -5 -3 -16 -6 -25 -4 -12 0 -16 16 -16 16 0 20 4 16 16
-3 9 -6 20 -6 25 0 5 -4 9 -10 9 -5 0 -10 -4 -10 -9z"/>
<path d="M1244 416 c-11 -28 1 -81 18 -84 21 -4 32 29 23 68 -7 31 -32 41 -41
16z"/>
<path d="M1507 423 c-13 -12 -7 -33 8 -33 8 0 15 9 15 20 0 20 -11 26 -23 13z"/>
<path d="M2494 419 c-10 -17 13 -36 27 -22 12 12 4 33 -11 33 -5 0 -12 -5 -16
-11z"/>
<path d="M2684 416 c-11 -28 1 -81 18 -84 21 -4 33 35 24 73 -7 27 -33 34 -42
11z"/>
<path d="M3330 360 c0 -11 5 -20 10 -20 6 0 10 9 10 20 0 11 -4 20 -10 20 -5
0 -10 -9 -10 -20z"/>
</g>
</svg>
